<?xml version="1.0" encoding="utf-8"?>
<!-- Generator: Adobe Illustrator 14.0.0, SVG Export Plug-In . SVG Version: 6.00 Build 43363)  -->
<!DOCTYPE svg PUBLIC "-//W3C//DTD SVG 1.1//EN" "http://www.w3.org/Graphics/SVG/1.1/DTD/svg11.dtd">
<svg version="1.1" id="Layer_1" xmlns="http://www.w3.org/2000/svg" xmlns:xlink="http://www.w3.org/1999/xlink" x="0px" y="0px"
	 width="269.584px" height="380px" viewBox="88.501 67.833 269.584 380" enable-background="new 88.501 67.833 269.584 380"
	 xml:space="preserve">
<path fill="none" stroke="#231F20" stroke-width="1.458" stroke-linecap="round" d="M275.693,441.997"/>
<g>
	<g>
		<path id="knob" fill="#231F20" d="M334.846,270.671h-47.834c-1.431-0.082-8.306-0.881-8.459-8.493v-47.62
			c0-1.608-1.305-2.914-2.914-2.914c-1.608,0-2.914,1.306-2.914,2.914v47.725c-0.106,1.602-1.02,8.275-8.551,8.39h-47.559
			c-1.609,0-2.914,1.305-2.914,2.914s1.305,2.914,2.914,2.914H264.6c1.943,0.184,7.981,1.336,8.125,8.462v48.434
			c0,1.609,1.305,2.914,2.914,2.914s2.914-1.305,2.914-2.914v-48.537c0.105-1.569,0.997-7.995,8.122-8.358h48.171
			c1.609,0,2.918-1.305,2.918-2.914S336.455,270.671,334.846,270.671z"/>
	</g>
</g>
<g>
	<path fill="#231F20" d="M176.682,270.671c-47.898,0-84.02,37.443-84.02,87.107c0,49.654,36.121,87.102,84.02,87.102
		c28.965,0,54.324-11.453,69.57-31.43c0.98-1.281,0.734-3.109-0.547-4.086c-1.281-0.984-3.113-0.734-4.086,0.547
		c-14.137,18.516-37.809,29.141-64.938,29.141c-44.574,0-78.191-34.938-78.191-81.273c0-46.334,33.617-81.277,78.191-81.277h29.535
		c1.609,0,2.914-1.306,2.914-2.914c0-1.609-1.305-2.914-2.914-2.914L176.682,270.671L176.682,270.671z"/>
	<path fill="#231F20" d="M272.779,345.638v96.359c0,1.607,1.305,2.914,2.914,2.914c1.607,0,2.914-1.307,2.914-2.914v-96.359
		c0-1.609-1.307-2.914-2.914-2.914C274.084,342.724,272.779,344.028,272.779,345.638z"/>
	<path fill="#231F20" d="M272.779,121.151v81.559c0,1.609,1.305,2.918,2.914,2.918c1.607,0,2.914-1.309,2.914-2.918v-81.559
		c0-26.462,12.539-42.259,33.533-42.259c12.91,0,22.471,5.32,30.996,17.254c0.936,1.31,2.76,1.613,4.066,0.677
		c1.309-0.935,1.613-2.758,0.676-4.066c-6.039-8.457-16.314-19.699-35.738-19.699C293.111,73.058,272.779,85.694,272.779,121.151z"
		/>
</g>
<rect x="-67.994" y="73.058" fill="none" width="632.953" height="459.322"/>
<g>
	<circle fill="#00ADEE" cx="348.885" cy="108.007" r="2.918"/>
</g>
</svg>
